# xmcd CD database file
# Copyright (C) 1997 Ti Kan
#
# Track frame offsets:
#  150
#  12932
#  25522
#  38255
#  49862
#  61422
#  73272
#  83295
#  98902
#  110200
#
# Disc length: 1627 seconds
#
# Revision: 1
# Processed by: cddbd v1.4b41PL1 Copyright (c) Steve Scherf et al.
# Submitted via: CDWizzard Release:4.35
#
DISCID=7406590a
DTITLE=Various Artist - Got The Blues
DYEAR=1900
DGENRE=
TTITLE0=B.B King - Rock me baby
TTITLE1=Jimmy Reed - Honest I do
TTITLE2=Howlin' Wolf - Back door man
TTITLE3=Elmore James - Shake your moneymaker
TTITLE4=Lightnin' Slim - Rooster blues
TTITLE5=Bobby Bland - Turn on your love light
TTITLE6=John Lee Hooker - Dimples
TTITLE7=Toussaint McCall - Nothing takes the place of you
TTITLE8=Slim Harpo - Shake your hips
TTITLE9=Muddy Waters - I just want to make love to you
EXTD=
EXTT0=
EXTT1=
EXTT2=
EXTT3=
EXTT4=
EXTT5=
EXTT6=
EXTT7=
EXTT8=
EXTT9=
PLAYORDER=
